Simulation
nRows=40
nColumns=15
endheader
time  TH_x TH_y TH_z SC_y  SC_z  SC_x  AC_y  AC_z  AC_x  GH_y  GH_z  GH_yy  EL_x  PS_y
1.55  0.000000  0.000000  0.000000  -32.853124102103294  6.509718463198625  29.731761493554412  54.23569740233018  5.245042136547162  -10.70810051863276  22.567608434947978  54.469122541314974  -21.027798532818355  17.926458476865506  0.000000
1.581  0.000000  0.000000  0.000000  -33.29836011169637  6.839728719033263  30.46488679269595  54.3245276855058  5.241019609526363  -10.391959538570244  22.349099269551314  54.919204612746086  -21.00678365691909  17.894313069657105  0.000000
1.612  0.000000  0.000000  0.000000  -33.68929698014122  7.12220806830907  31.014100330349486  54.42575618783284  5.263183302386873  -10.044911349801266  22.095181533274165  55.34961925183671  -20.92129604790695  17.87148086862387  0.000000
1.643  0.000000  0.000000  0.000000  -34.023276555750186  7.332242489260375  31.406798639989283  54.53557533511817  5.323473106454971  -9.713119178658985  21.824806305011663  55.74143384679746  -20.818920551548533  17.871894653534998  0.000000
1.674  0.000000  0.000000  0.000000  -34.32327989079311  7.474553846980226  31.683929647441516  54.65178032699382  5.416596453741287  -9.413943090761045  21.576304980496662  56.05777824012164  -20.734678450656258  17.895095619169258  0.000000
1.705  0.000000  0.000000  0.000000  -34.6148290537152  7.569625935388369  31.88222335815641  54.768016893284475  5.529488185044236  -9.145771489979365  21.394972963802537  56.25891986172064  -20.67663319368573  17.930205267880975  0.000000
1.736  0.000000  0.000000  0.000000  -34.901165805713276  7.632639367146371  32.02362394307269  54.87500664421542  5.648167844950213  -8.914912755668523  21.31492219297377  56.3196870119443  -20.64265009827883  17.966875339016564  0.000000
1.767  0.000000  0.000000  0.000000  -35.1566191895481  7.667971108500147  32.108748741652214  54.95834004153754  5.753236755486135  -8.741624318368702  21.34818607107975  56.242797706000594  -20.628980613018147  17.99979088811542  0.000000
1.798  0.000000  0.000000  0.000000  -35.33623081110098  7.673829878690379  32.122120138979255  55.00064182700352  5.820695136025584  -8.658428250967196  21.48708785704961  56.05483116767359  -20.635445477130393  18.026675126430572  0.000000
1.829  0.000000  0.000000  0.000000  -35.3989866742983  7.645487018045458  32.0483633288424  54.98601657319707  5.831210812862999  -8.694397721952976  21.717026881561114  55.78428326135721  -20.666710346944665  18.045916496314202  0.000000
1.8599999999999999  0.000000  0.000000  0.000000  -35.32909813289477  7.575526292991707  31.886776198752823  54.91601093231242  5.776584146408949  -8.861270161288523  22.020117137177802  55.44221576970648  -20.74487582696961  18.05651503729895  0.000000
1.891  0.000000  0.000000  0.000000  -35.13828522420713  7.452145349844585  31.652550232870475  54.811164663696935  5.664219634490853  -9.147516320589274  22.376302629229723  55.016308571837435  -20.90687275892503  18.058903499603304  0.000000
1.922  0.000000  0.000000  0.000000  -34.85130213280356  7.262646962204741  31.364615137359003  54.70220087229614  5.510131796321216  -9.529330742267172  22.763169503947555  54.4858023141946  -21.190329998298257  18.054852562513084  0.000000
1.953  0.000000  0.000000  0.000000  -34.49702644855233  7.003282915850979  31.030568690472816  54.61297996151719  5.327356815382143  -9.975190652038929  23.162531891201365  53.83660430350714  -21.5998641835553  18.050187738756918  0.000000
1.984  0.000000  0.000000  0.000000  -34.107986548086146  6.686684206278273  30.635798172402556  54.55663487710316  5.113945120647435  -10.445752171975338  23.563990281059805  53.07526586875867  -22.09315269731453  18.053429698490273  0.000000
2.015  0.000000  0.000000  0.000000  -33.718260741770486  6.338902705043298  30.14012968203493  54.53856757515574  4.859908187531166  -10.885624707937886  23.95534267235405  52.227206059626766  -22.58979398091139  18.075006762519433  0.000000
2.046  0.000000  0.000000  0.000000  -33.35384558570609  5.985451103566515  29.500924703574977  54.55635433025811  4.567012157280896  -11.243002573867118  24.32723740628336  51.31778270486271  -23.015834026023743  18.12526349651886  0.000000
2.077  0.000000  0.000000  0.000000  -33.022335058156045  5.635074648322449  28.695729143037358  54.599273575984355  4.259042632060298  -11.485979860744857  24.67156293188344  50.35923891039302  -23.332295382709688  18.206437073448303  0.000000
2.108  0.000000  0.000000  0.000000  -32.71748133256239  5.2818804519921825  27.72853363936785  54.65417183124651  3.9706185874277193  -11.611997531720712  24.986275320506735  49.35589142407913  -23.542937909902427  18.312160033814536  0.000000
2.139  0.000000  0.000000  0.000000  -32.43462392367811  4.915458529470923  26.625251796805472  54.711639214284595  3.72784081866452  -11.635543483274237  25.272527907575196  48.30920007372516  -23.668420466991343  18.433736095801823  0.000000
2.17  0.000000  0.000000  0.000000  -32.17201775006453  4.529902873349604  25.417486118079946  54.767033063554116  3.536280854392853  -11.576964950914004  25.528617308023538  47.22532375351279  -23.730626069665536  18.561807919535465  0.000000
2.201  0.000000  0.000000  0.000000  -31.928478993459507  4.126684316050926  24.13163138631557  54.81117922180732  3.3891713821990184  -11.453858484941195  25.75336741197362  46.10888253574329  -23.740808588856265  18.690377928765354  0.000000
2.232  0.000000  0.000000  0.000000  -31.699608411206825  3.7072752587779796  22.785959440910453  54.83488459065509  3.277410067290618  -11.283035089266942  25.944178576590733  44.96646526374271  -23.703582497822477  18.81550465208283  0.000000
2.263  0.000000  0.000000  0.000000  -31.48044487595071  3.273946364022081  21.39769567020724  54.83066505763215  3.196717047264184  -11.076682439446463  26.09704923526412  43.802595289139205  -23.61923050860296  18.933498155736814  0.000000
2.294  0.000000  0.000000  0.000000  -31.269758035196297  2.8308212737829743  19.986331285439604  54.79825184569403  3.1479112090623738  -10.843448799667405  26.211581875675574  42.61935059586166  -23.486701640198408  19.039622657850067  0.000000
2.325  0.000000  0.000000  0.000000  -31.07026165038902  2.380302781572106  18.571333252238038  54.74063809808374  3.130616797183937  -10.590773724923878  26.293257363398528  41.41928494380502  -23.301171252212246  19.13133513789644  0.000000
2.356  0.000000  0.000000  0.000000  -30.883761585777112  1.9270761162009062  17.174390857462118  54.66237799064441  3.1382449431847164  -10.326754248908793  26.3539300983424  40.2006838984666  -23.060147155844128  19.207153967613795  0.000000
2.387  0.000000  0.000000  0.000000  -30.709939309795256  1.4793702197970855  15.815911408371067  54.56434684728618  3.1589894157993506  -10.059210598764821  26.404054294874346  38.958244367829955  -22.76535241266518  19.26888674955988  0.000000
2.418  0.000000  0.000000  0.000000  -30.548736686645622  1.045824411227362  14.50715082351138  54.44641931639589  3.185720259307005  -9.790971061575437  26.4508629185592  37.68118876688493  -22.422030938896672  19.320333737818245  0.000000
2.449  0.000000  0.000000  0.000000  -30.397100940014074  0.6357071206963122  13.249718080366424  54.30390875107468  3.212433363702393  -9.522864261935077  26.497516950142344  36.35995457138608  -22.037980227150122  19.367119840243255  0.000000
2.48  0.000000  0.000000  0.000000  -30.25240274294637  0.2548053574664539  12.043154623523913  54.13456619875754  3.2398594179451448  -9.25394376365558  26.548829028540855  34.9825806714093  -21.623751685228136  19.41287043281627  0.000000
2.511  0.000000  0.000000  0.000000  -30.113791620379015  -0.09683679909127008  10.889490818385168  53.94271346548257  3.270994454583226  -8.98715070572549  26.60853588299639  33.543511014062815  -21.198055842810607  19.45851725058545  0.000000
2.542  0.000000  0.000000  0.000000  -29.98803405460383  -0.42369875919725236  9.79820013049229  53.74086086886617  3.3132684207269767  -8.725443391800527  26.682929321575386  32.03727148817116  -20.783871338760314  19.503854842719285  0.000000
2.573  0.000000  0.000000  0.000000  -29.881141037405893  -0.7297036071669945  8.778895935013436  53.54462642129798  3.3701905266351315  -8.473672242395233  26.775290844020297  30.46644816830388  -20.40750978091511  19.54675481399348  0.000000
2.604  0.000000  0.000000  0.000000  -29.795240263059245  -1.0133111104593089  7.835844521340127  53.360967116099104  3.4456613633357396  -8.229190294968724  26.893058592586147  28.83121242328873  -20.07988349012743  19.58739816886054  0.000000
2.635  0.000000  0.000000  0.000000  -29.72133060968053  -1.2647930144727693  6.964619746200228  53.190322767366816  3.5333065499804457  -7.987984175753709  27.042513628341585  27.138561644490263  -19.80116155387717  19.624559382501346  0.000000
2.666  0.000000  0.000000  0.000000  -29.64891527308094  -1.4726795358860483  6.1609752567619775  53.02284229890819  3.62569471523299  -7.742492815762628  27.23148442375172  25.39139978562301  -19.55633313593546  19.66187126272287  0.000000
2.697  0.000000  0.000000  0.000000  -29.56837948022311  -1.6310631642197493  5.416600122193222  52.85515650417269  3.716133413690327  -7.492811845897229  27.46301603133556  23.60420607410091  -19.332803074841355  19.699433242621787  0.000000
2.7279999999999998  0.000000  0.000000  0.000000  -29.47983969478833  -1.7461069041664372  4.726863490018454  52.679704772230274  3.804856757295327  -7.2421459854792225  27.736588645482854  21.794730008735616  -19.115934947739905  19.74249899004276  0.000000
2.759  0.000000  0.000000  0.000000  -29.389559650160543  -1.8312944358950891  4.087214625221053  52.502692231002605  3.893035962513207  -7.003690688860451  28.049831204902397  19.991628063060126  -18.898308222712924  19.791330913229146  0.000000
